<svg id="Layer_1" data-name="Layer 1" xmlns="http://www.w3.org/2000/svg" viewBox="0 0 187.86 71.53"><defs><style>.cls-1{fill:#fff;}</style></defs><path class="cls-1" d="M115.36,45.67a8.75,8.75,0,0,1,6.37,2.81l.08.11v0c-1.74,1.63-2.74,2.44-3,2.44a2.41,2.41,0,0,1-.41,0,6.75,6.75,0,0,1-1.78-.73,3.53,3.53,0,0,0-1.17-.15h-.29a4.81,4.81,0,0,0-3.76,2.23,5.31,5.31,0,0,0-.84,2.67A5,5,0,0,0,113,59.37a4.56,4.56,0,0,0,2.45.66,4.94,4.94,0,0,0,2.4-.84,1.65,1.65,0,0,1,.44-.08h.18a2.45,2.45,0,0,1,1.56,1,15.06,15.06,0,0,1,1.75,1.56,8.52,8.52,0,0,1-6.49,2.93,8.9,8.9,0,0,1-7.58-4.2,9.67,9.67,0,0,1-1.54-5.27,9.56,9.56,0,0,1,3.94-7.79,9.14,9.14,0,0,1,5.26-1.64"/><path class="cls-1" d="M129.74,45.78h.52A9,9,0,0,1,137,48.89a9.79,9.79,0,0,1,2.07,6.28,9,9,0,0,1-3.64,7.6,9.16,9.16,0,0,1-5.14,1.68h-.62a9,9,0,0,1-6.45-2.81,9.18,9.18,0,0,1-2.34-6.32V55a8.78,8.78,0,0,1,4.27-7.9,9.1,9.1,0,0,1,4.56-1.27M130,59.67a4.31,4.31,0,0,0,3.21-1.38,4.85,4.85,0,0,0,0-6.67,4.42,4.42,0,0,0-6.42,0,4.85,4.85,0,0,0,0,6.67A4.28,4.28,0,0,0,130,59.67"/><path class="cls-1" d="M149.39,60.07,145,60c-.27,0-.43-.19-.47-.56l.37-13.29s0-.07-.06-.08l-3.18-.09a1.59,1.59,0,0,0-.49.06,1.23,1.23,0,0,0-.91,1.25L139.81,64l0,.08,7.84.18a.72.72,0,0,0,.71-.53l1-3.7Z"/><path class="cls-1" d="M109.56,26.76h3.84a9.42,9.42,0,0,1,6.46,2.12,8.94,8.94,0,0,1,3.29,7v0a9.07,9.07,0,0,1-4.21,7.67,8.27,8.27,0,0,1-2.88,1.17,10.14,10.14,0,0,1-2.71.25h-5.08a.07.07,0,0,1-.08-.08V28.09a1.22,1.22,0,0,1,.88-1.27,1.17,1.17,0,0,1,.47-.08M112.87,31v9.17c0,.25.17.41.51.47h.88a4.14,4.14,0,0,0,3.14-1.79,5,5,0,0,0-1.35-7.3,4.06,4.06,0,0,0-1.91-.55Z"/><path class="cls-1" d="M129.28,26.76h2.95q.14,0,6.46,18.23h-3.44a1.35,1.35,0,0,1-1.39-1,8.92,8.92,0,0,0-.94-2.58.92.92,0,0,0-.55-.15h-4.08l1.2-3.47c.12-.36.62-.52,1.5-.47.31,0,.42-.23.36-.62l-1.12-3.44L126.13,45h-4.38l6.16-17.57a1.47,1.47,0,0,1,1.36-.66"/><path class="cls-1" d="M136.33,26.76h13.14a.07.07,0,0,1,.08.08v4.08a.07.07,0,0,1-.08.08h-4.95V44.92a.07.07,0,0,1-.08.08H140.1a.07.07,0,0,1-.08-.08V31.55a.52.52,0,0,0-.55-.55h-4.4a.07.07,0,0,1-.08-.08V28.07a1.24,1.24,0,0,1,.8-1.23,2.06,2.06,0,0,1,.52-.08"/><path class="cls-1" d="M153.63,26.76h3q.13,0,6.46,18.23H159.6a1.36,1.36,0,0,1-1.39-1,8.92,8.92,0,0,0-.94-2.58.92.92,0,0,0-.55-.15h-4.08l1.2-3.47c.12-.36.62-.52,1.5-.47.31,0,.42-.23.36-.62l-1.12-3.44L150.48,45H146.1l6.16-17.57a1.47,1.47,0,0,1,1.36-.66"/><path class="cls-1" d="M156.73,46h3q.13,0,6.46,18.23H162.7a1.35,1.35,0,0,1-1.39-1,8.92,8.92,0,0,0-.94-2.58.92.92,0,0,0-.55-.15h-4.08l1.2-3.47c.12-.36.62-.52,1.5-.47.31,0,.42-.23.36-.62l-1.12-3.44-4.1,11.73H149.2l6.16-17.57a1.47,1.47,0,0,1,1.36-.66"/><path class="cls-1" d="M168.2,46h7.71A4.86,4.86,0,0,1,181,49.47a4.79,4.79,0,0,1,.29,1.68,4.19,4.19,0,0,1-1.76,3.47,3.52,3.52,0,0,1,1.79,1.72,5.82,5.82,0,0,1,.59,2.56,5.27,5.27,0,0,1-2.71,4.78,7,7,0,0,1-3.1.55h-9.24a.07.07,0,0,1-.08-.08V47.24a1.28,1.28,0,0,1,.92-1.21,3.44,3.44,0,0,1,.51,0m3.26,4.27V53c0,.34.22.51.65.51h3.18a1.24,1.24,0,0,0,1.27-1.09,1.06,1.06,0,0,0,0-.33v-.53c-.12-.87-.48-1.31-1.09-1.31h-4Zm0,6.45v2.76c.06.29.2.43.43.43h4.35c.68-.13,1-.7,1-1.73v-.12c-.1-.9-.43-1.35-1-1.35h-4.82Z"/><path class="cls-1" d="M46.08,58.52c-7,0-12.69-6.78-12.69-15.1s5.69-15.1,12.69-15.1H88.56L87.47,26l-1-2.19L86.07,23h-40c-9.74,0-17.66,9.17-17.66,20.43s7.92,20.43,17.66,20.43h60.29l-2.44-5.33Z"/><path class="cls-1" d="M82.57,29.72h-5l.11,1.52c0,.42,0,.84,0,1.27,0,8.33-5.69,15.1-12.69,15.1H35.24a14.47,14.47,0,0,0,2.63,5.33H65.05c9.74,0,17.66-9.17,17.66-20.43,0-.49,0-1,0-1.46l-.08-1.33Z"/><path class="cls-1" d="M27.34,48H10.09L6,52.94H28.84A24.11,24.11,0,0,1,27.34,48Z"/><path class="cls-1" d="M75.89,21l.17.43h5.27l-.47-1.4C78.21,12.12,71.75,7,64.39,7H31.15l-3,5.33H64.39c4.9,0,9.41,3.42,11.49,8.72Z"/><path class="cls-1" d="M46.08,58.52c-7,0-12.69-6.78-12.69-15.1s5.69-15.1,12.69-15.1H88.56L87.47,26l-1-2.19L86.07,23h-40c-9.74,0-17.66,9.17-17.66,20.43s7.92,20.43,17.66,20.43h60.29l-2.44-5.33Z"/></svg>