<svg width="21" height="21" viewBox="0 0 21 21" fill="none" xmlns="http://www.w3.org/2000/svg">
<g clip-path="url(#clip0_1_26)">
<path d="M21 0H0V21H21V0Z" fill="#F5F5F5"/>
<mask id="mask0_1_26" style="mask-type:luminance" maskUnits="userSpaceOnUse" x="-694" y="-300" width="1920" height="1040">
<path d="M1226 -300H-694V740H1226V-300Z" fill="white"/>
</mask>
<g mask="url(#mask0_1_26)">
<path d="M1226 -300H-694V740H1226V-300Z" fill="#ECECEC"/>
<path d="M1226 -300H-694V740H1226V-300Z" fill="#FAFAFA"/>
<g filter="url(#filter0_d_1_26)">
<path d="M607 -25H-283C-288.523 -25 -293 -20.5228 -293 -15V75C-293 80.5229 -288.523 85 -283 85H607C612.523 85 617 80.5229 617 75V-15C617 -20.5228 612.523 -25 607 -25Z" fill="white"/>
<path d="M607 -24.5H-283C-288.247 -24.5 -292.5 -20.2467 -292.5 -15V75C-292.5 80.2467 -288.247 84.5 -283 84.5H607C612.247 84.5 616.5 80.2467 616.5 75V-15C616.5 -20.2467 612.247 -24.5 607 -24.5Z" stroke="#465AFF"/>
</g>
<path d="M17.3711 8.22332C17.3711 12.3292 14.1464 15.6576 10.1686 15.6576C6.19075 15.6576 2.96606 12.3292 2.96606 8.22332C2.96606 4.11749 6.19075 0.789062 10.1686 0.789062C14.1464 0.789062 17.3711 4.11749 17.3711 8.22332Z" stroke="url(#paint0_linear_1_26)" stroke-linecap="round" strokeLinejoin="round"/>
<path d="M10.4633 4.18704L11.4555 6.24706C11.4777 6.29917 11.5128 6.34426 11.5574 6.37773C11.602 6.4112 11.6544 6.43186 11.7093 6.43759L13.9128 6.78291C13.9757 6.79137 14.0351 6.81817 14.0839 6.86017C14.1327 6.90218 14.1689 6.95765 14.1882 7.0201C14.2076 7.08255 14.2093 7.1494 14.1932 7.21283C14.1771 7.27626 14.1439 7.33365 14.0973 7.37829L12.4707 8.97391C12.4464 9.02167 12.4338 9.07479 12.4338 9.12871C12.4338 9.18263 12.4464 9.23575 12.4707 9.28351L12.7822 11.546C12.7955 11.6114 12.7901 11.6793 12.7667 11.7416C12.7433 11.8039 12.7029 11.8579 12.6504 11.897C12.5979 11.936 12.5355 11.9586 12.4709 11.9618C12.4062 11.965 12.342 11.9488 12.2861 11.9151L10.3249 10.8434C10.2742 10.8197 10.2191 10.8075 10.1634 10.8075C10.1077 10.8075 10.0526 10.8197 10.0019 10.8434L8.04069 11.9151C7.98478 11.9488 7.9206 11.965 7.85594 11.9618C7.79128 11.9586 7.72891 11.936 7.6764 11.897C7.62389 11.8579 7.58349 11.8039 7.5601 11.7416C7.53671 11.6793 7.53133 11.6114 7.54462 11.546L7.91379 9.28351C7.92966 9.231 7.9327 9.17525 7.92264 9.12123C7.91257 9.06721 7.88972 9.0166 7.85611 8.97391L6.22946 7.36638C6.18632 7.32127 6.15603 7.26477 6.14193 7.20307C6.12783 7.14137 6.13046 7.07686 6.14952 7.0166C6.16858 6.95634 6.20335 6.90265 6.25001 6.86143C6.29667 6.82021 6.35342 6.79305 6.41405 6.78291L8.61751 6.44949C8.67237 6.44376 8.72477 6.42311 8.76936 6.38964C8.81395 6.35616 8.84913 6.31107 8.87131 6.25897L9.86345 4.19895C9.89 4.14064 9.93182 4.09115 9.9842 4.05609C10.0366 4.02103 10.0974 4.00179 10.1598 4.00055C10.2222 3.99931 10.2837 4.01612 10.3374 4.04908C10.391 4.08204 10.4346 4.12982 10.4633 4.18704Z" stroke="url(#paint1_linear_1_26)" stroke-linecap="round" strokeLinejoin="round"/>
<path d="M3.92954 11.8701L0.726562 17.5963L4.18747 16.6392L5.11481 20.2114L7.89388 15.2431" stroke="url(#paint2_linear_1_26)" stroke-linecap="round" strokeLinejoin="round"/>
<path d="M16.4157 11.8701L19.6187 17.5963L16.1578 16.6392L15.2305 20.2114L12.4514 15.2431" stroke="url(#paint3_linear_1_26)" stroke-linecap="round" strokeLinejoin="round"/>
</g>
</g>
<defs>
<filter id="filter0_d_1_26" x="-308" y="-38" width="940" height="140" filterUnits="userSpaceOnUse" color-interpolation-filters="sRGB">
<feFlood flood-opacity="0" result="BackgroundImageFix"/>
<feColorMatrix in="SourceAlpha" type="matrix" values="0 0 0 0 0 0 0 0 0 0 0 0 0 0 0 0 0 0 127 0" result="hardAlpha"/>
<feOffset dy="2"/>
<feGaussianBlur stdDeviation="7.5"/>
<feComposite in2="hardAlpha" operator="out"/>
<feColorMatrix type="matrix" values="0 0 0 0 0 0 0 0 0 0 0 0 0 0 0 0 0 0 0.1 0"/>
<feBlend mode="normal" in2="BackgroundImageFix" result="effect1_dropShadow_1_26"/>
<feBlend mode="normal" in="SourceGraphic" in2="effect1_dropShadow_1_26" result="shape"/>
</filter>
<linearGradient id="paint0_linear_1_26" x1="18.2519" y1="14.6664" x2="0.138519" y2="13.0109" gradientUnits="userSpaceOnUse">
<stop stop-color="#32AE99"/>
<stop offset="0.5" stop-color="#32AE99"/>
<stop offset="1" stop-color="#46DAFF"/>
</linearGradient>
<linearGradient id="paint1_linear_1_26" x1="14.6976" y1="11.4314" x2="4.55669" y2="10.4616" gradientUnits="userSpaceOnUse">
<stop stop-color="#32AE99"/>
<stop offset="0.5" stop-color="#32AE99"/>
<stop offset="1" stop-color="#46DAFF"/>
</linearGradient>
<linearGradient id="paint2_linear_1_26" x1="8.33212" y1="19.6553" x2="-0.69626" y2="18.9235" gradientUnits="userSpaceOnUse">
<stop stop-color="#32AE99"/>
<stop offset="0.5" stop-color="#32AE99"/>
<stop offset="1" stop-color="#46DAFF"/>
</linearGradient>
<linearGradient id="paint3_linear_1_26" x1="20.057" y1="19.6553" x2="11.0286" y2="18.9235" gradientUnits="userSpaceOnUse">
<stop stop-color="#32AE99"/>
<stop offset="0.5" stop-color="#32AE99"/>
<stop offset="1" stop-color="#46DAFF"/>
</linearGradient>
<clipPath id="clip0_1_26">
<rect width="21" height="21" fill="white"/>
</clipPath>
</defs>
</svg>
