<svg width="23" height="21" viewBox="0 0 23 21" fill="none" xmlns="http://www.w3.org/2000/svg">
<g clip-path="url(#clip0_1_53)">
<path d="M23 0H0V21H23V0Z" fill="#F5F5F5"/>
<mask id="mask0_1_53" style="mask-type:luminance" maskUnits="userSpaceOnUse" x="-692" y="-334" width="1920" height="1040">
<path d="M1228 -334H-692V706H1228V-334Z" fill="white"/>
</mask>
<g mask="url(#mask0_1_53)">
<path d="M1228 -334H-692V706H1228V-334Z" fill="#ECECEC"/>
<path d="M1228 -334H-692V706H1228V-334Z" fill="#FAFAFA"/>
<g filter="url(#filter0_d_1_53)">
<path d="M609 -59H-281C-286.523 -59 -291 -54.5228 -291 -49V41C-291 46.5229 -286.523 51 -281 51H609C614.523 51 619 46.5229 619 41V-49C619 -54.5228 614.523 -59 609 -59Z" fill="white"/>
<path d="M609 -58.5H-281C-286.247 -58.5 -290.5 -54.2467 -290.5 -49V41C-290.5 46.2467 -286.247 50.5 -281 50.5H609C614.247 50.5 618.5 46.2467 618.5 41V-49C618.5 -54.2467 614.247 -58.5 609 -58.5Z" stroke="#465AFF"/>
</g>
<path d="M11.2694 12C13.4923 12 15.2942 10.3211 15.2942 8.25C15.2942 6.17893 13.4923 4.5 11.2694 4.5C9.04659 4.5 7.24463 6.17893 7.24463 8.25C7.24463 10.3211 9.04659 12 11.2694 12Z" stroke="url(#paint0_linear_1_53)" stroke-linecap="round" stroke-linejoin="round"/>
<path d="M4.39508 17.8499C5.11349 16.7512 6.12318 15.8431 7.32708 15.213C8.53098 14.5829 9.8886 14.252 11.2694 14.252C12.6503 14.252 14.0079 14.5829 15.2118 15.213C16.4157 15.8431 17.4254 16.7512 18.1438 17.8499" stroke="url(#paint1_linear_1_53)" stroke-linecap="round" stroke-linejoin="round"/>
<path d="M11.2694 20.25C17.0488 20.25 21.7339 15.8848 21.7339 10.5C21.7339 5.11522 17.0488 0.75 11.2694 0.75C5.49004 0.75 0.804932 5.11522 0.804932 10.5C0.804932 15.8848 5.49004 20.25 11.2694 20.25Z" stroke="url(#paint2_linear_1_53)" stroke-linecap="round" stroke-linejoin="round"/>
</g>
</g>
<defs>
<filter id="filter0_d_1_53" x="-306" y="-72" width="940" height="140" filterUnits="userSpaceOnUse" color-interpolation-filters="sRGB">
<feFlood flood-opacity="0" result="BackgroundImageFix"/>
<feColorMatrix in="SourceAlpha" type="matrix" values="0 0 0 0 0 0 0 0 0 0 0 0 0 0 0 0 0 0 127 0" result="hardAlpha"/>
<feOffset dy="2"/>
<feGaussianBlur stdDeviation="7.5"/>
<feComposite in2="hardAlpha" operator="out"/>
<feColorMatrix type="matrix" values="0 0 0 0 0 0 0 0 0 0 0 0 0 0 0 0 0 0 0.1 0"/>
<feBlend mode="normal" in2="BackgroundImageFix" result="effect1_dropShadow_1_53"/>
<feBlend mode="normal" in="SourceGraphic" in2="effect1_dropShadow_1_53" result="shape"/>
</filter>
<linearGradient id="paint0_linear_1_53" x1="15.7864" y1="11.5" x2="5.68361" y2="10.4771" gradientUnits="userSpaceOnUse">
<stop stop-color="#32AE99"/>
<stop offset="0.5" stop-color="#32AE99"/>
<stop offset="1" stop-color="#46DAFF"/>
</linearGradient>
<linearGradient id="paint1_linear_1_53" x1="18.9845" y1="17.6101" x2="3.55679" y2="12.0486" gradientUnits="userSpaceOnUse">
<stop stop-color="#32AE99"/>
<stop offset="0.5" stop-color="#32AE99"/>
<stop offset="1" stop-color="#46DAFF"/>
</linearGradient>
<linearGradient id="paint2_linear_1_53" x1="23.0136" y1="18.95" x2="-3.25373" y2="16.2905" gradientUnits="userSpaceOnUse">
<stop stop-color="#32AE99"/>
<stop offset="0.5" stop-color="#32AE99"/>
<stop offset="1" stop-color="#46DAFF"/>
</linearGradient>
<clipPath id="clip0_1_53">
<rect width="23" height="21" fill="white"/>
</clipPath>
</defs>
</svg>
